<?xml version="1.0" encoding="UTF-8" standalone="no"?>
<!-- Created with Inkscape (http://www.inkscape.org/) by Marsupilami -->
<svg
   xmlns:svg="http://www.w3.org/2000/svg"
   xmlns="http://www.w3.org/2000/svg"
   version="1.0"
   width="463.3775"
   height="61.405006"
   id="svg2276">
  <defs
     id="defs2278" />
  <g
     transform="translate(-111.16839,-524.51682)"
     id="layer1">
    <path
       d="M 341.09375,0 L 341.09375,3.9375 C 354.1575,3.88125 361.78125,20.625 361.78125,20.625 L 361.78125,1.3125 L 355.46875,5.71875 C 349.1675,-0.03375 341.09375,2.2737267e-13 341.09375,0 z M 335.15625,0.03125 C 325.3825,3.44375 318.65625,16.112499 318.65625,29.875 C 318.65625,45.9925 328.23625,59.376249 339.84375,61.25 L 335.125,56.09375 L 335.125,55.96875 L 335.15625,0.03125 z M 435,0.1875 C 425.225,3.60125 418.5,16.27 418.5,30.03125 C 418.5,46.15 428.08125,59.532498 439.6875,61.40625 L 434.96875,56.25 L 435,0.1875 z M 442.1875,0.1875 L 446.90625,5.3125 L 446.875,61.40625 C 456.64875,57.9925 463.375,45.325001 463.375,31.5625 C 463.375,15.445 453.795,2.06 442.1875,0.1875 z M 36.71875,1.875 L 36.71875,55.90625 L 32.15625,59.59375 L 36.71875,59.59375 L 55.71875,59.59375 L 51.03125,55.90625 L 51.03125,5.65625 L 55.78125,1.875 L 36.71875,1.875 z M 249.5,2 L 253.65625,5.9375 L 253.65625,34.4375 L 257.90625,34.4375 L 257.90625,5.9375 L 262.09375,2 L 249.5,2 z M 0.21875,2.0625 L 24.3125,59.625 L 31.03125,40.375 L 14.8125,2.0625 L 0.21875,2.0625 z M 127.28125,2.125 L 136.90625,39.25 C 136.93625,39.261249 127.6875,39.25 127.6875,39.25 L 127.6875,42.3125 L 137.71875,42.3125 C 139.74749,50.182499 141.25,56.0625 141.25,56.0625 L 137.5,59.5625 L 156.6875,59.5625 L 140.5625,2.125 L 127.28125,2.125 z M 215.3125,2.125 L 248.375,59.84375 L 257.84375,59.84375 L 257.84375,49.90625 L 231.15625,2.125 L 215.3125,2.125 z M 125.1875,20.40625 L 116.96875,56.125 L 112.78125,59.8125 L 125.4375,59.8125 L 121.25,56.125 L 129.34375,20.40625 L 125.1875,20.40625 z M 219.46875,24.625 L 219.46875,55.625 L 215.3125,59.5625 L 227.90625,59.5625 L 223.71875,55.625 L 223.71875,24.625 L 219.46875,24.625 z M 341.0625,29.96875 L 347.3125,35 L 347.3125,61.25 C 347.31251,61.249999 363.03125,57.43875 363.03125,29.96875 L 341.0625,29.96875 z M 4.1875,31.15625 L 4.1875,55.90625 L 0,59.59375 L 12.59375,59.59375 L 8.40625,55.90625 L 8.40625,31.15625 L 4.1875,31.15625 z "
       transform="translate(111.16839,524.51682)"
       style="fill:#000000;fill-opacity:1;fill-rule:nonzero;stroke:none"
       id="path13228" />
  </g>
</svg>
